<svg xmlns="http://www.w3.org/2000/svg" viewBox="0 0 64 64" fill="none">
  <rect width="64" height="64" rx="18" fill="#050505"/>
  <rect x="4.5" y="4.5" width="55" height="55" rx="13.5" stroke="#C8A96E" stroke-opacity=".35"/>
  <path d="M16 48 28 16h8l12 32h-7.4l-2.5-7.1H25.9L23.4 48H16Zm12.1-13.2h7.8L32 23.5l-3.9 11.3Z" fill="#F2F0EB"/>
  <path d="M37.6 17.8c3.6.1 6.2.8 8 2.2 1.8 1.4 2.7 3.3 2.7 5.8 0 1.6-.4 3-1.2 4.1-.8 1.1-2 2-3.6 2.6 1.8.5 3.1 1.4 4 2.7.9 1.2 1.3 2.7 1.3 4.3 0 2.6-.9 4.7-2.8 6.1-1.9 1.5-4.6 2.2-8.2 2.2h-4.1v-5.7h4c1.4 0 2.5-.2 3.3-.7.8-.5 1.2-1.3 1.2-2.4 0-1.1-.4-1.9-1.2-2.4-.8-.5-1.9-.7-3.3-.7h-3.4v-5.5h3.3c1.4 0 2.4-.2 3.1-.7.7-.5 1-1.2 1-2.1 0-1-.4-1.7-1.1-2.1-.7-.4-1.8-.6-3.2-.6h-3.1v-5.7h3.3Z" fill="#C8A96E"/>
</svg>
